<?xml version="1.0" encoding="UTF-8"?>
<svg width="18px" height="14px" viewBox="0 0 18 14" version="1.1" xmlns="http://www.w3.org/2000/svg" xmlns:xlink="http://www.w3.org/1999/xlink">
    <!-- Generator: Sketch 63.1 (92452) - https://sketch.com -->
    <title>photo_size_select_large-24px (1)</title>
    <desc>Created with Sketch.</desc>
    <g id="Page-1" stroke="none" stroke-width="1" fill="none" fill-rule="evenodd">
        <g id="QSC-1.4-Option-2.2" transform="translate(-274.000000, -263.000000)">
            <g id="Group-3" transform="translate(274.000000, 261.000000)">
                <g id="photo_size_select_large-24px-(1)">
                    <polygon id="Path" points="18 18 0 18 0 0 18 0"></polygon>
                    <path d="M15.75,11.25 L17.25,11.25 L17.25,12.75 L15.75,12.75 L15.75,11.25 Z M15.75,8.25 L17.25,8.25 L17.25,9.75 L15.75,9.75 L15.75,8.25 Z M17.25,14.25 L15.75,14.25 L15.75,15.75 C16.5,15.75 17.25,15 17.25,14.25 Z M9.75,2.25 L11.25,2.25 L11.25,3.75 L9.75,3.75 L9.75,2.25 Z M15.75,5.25 L17.25,5.25 L17.25,6.75 L15.75,6.75 L15.75,5.25 Z M15.75,2.25 L15.75,3.75 L17.25,3.75 C17.25,3 16.5,2.25 15.75,2.25 Z M0.75,5.25 L2.25,5.25 L2.25,6.75 L0.75,6.75 L0.75,5.25 Z M12.75,2.25 L14.25,2.25 L14.25,3.75 L12.75,3.75 L12.75,2.25 Z M12.75,14.25 L14.25,14.25 L14.25,15.75 L12.75,15.75 L12.75,14.25 Z M2.25,2.25 C1.5,2.25 0.75,3 0.75,3.75 L2.25,3.75 L2.25,2.25 Z M6.75,2.25 L8.25,2.25 L8.25,3.75 L6.75,3.75 L6.75,2.25 Z M3.75,2.25 L5.25,2.25 L5.25,3.75 L3.75,3.75 L3.75,2.25 Z M0.75,8.25 L0.75,14.25 C0.75,15.075 1.425,15.75 2.25,15.75 L11.25,15.75 L11.25,8.25 L0.75,8.25 Z M2.25,14.25 L4.125,11.8425 L5.4675,13.455 L7.3425,11.04 L9.75,14.25 L2.25,14.25 Z" id="Shape" fill="#024f9d" fill-rule="nonzero"></path>
                </g>
            </g>
        </g>
    </g>
</svg>