<?xml version="1.0" encoding="UTF-8"?>
<svg width="16px" height="16px" viewBox="0 0 16 16" version="1.1" xmlns="http://www.w3.org/2000/svg" xmlns:xlink="http://www.w3.org/1999/xlink">
    <!-- Generator: Sketch 63.1 (92452) - https://sketch.com -->
    <title>book</title>
    <desc>Created with Sketch.</desc>
    <g id="Page-1" stroke="none" stroke-width="1" fill="none" fill-rule="evenodd">
        <g id="3" transform="translate(-29.000000, -145.000000)" fill="#0A4F9D" fill-rule="nonzero" stroke="#0A4F9D" stroke-width="0.3">
            <g id="Group-16" transform="translate(18.000000, 142.000000)">
                <g id="Group-54-Copy">
                    <g id="book" transform="translate(12.000000, 4.000000)">
                        <path d="M6.93173293,0 L3.927982,0 C3.80038124,0 3.69692423,0.104475904 3.69692423,0.233333333 L3.69692423,1.86666667 L0.231057764,1.86666667 C0.103457009,1.86666667 0,1.97114257 0,2.1 L0,13.7666667 C0,13.8955241 0.103457009,14 0.231057764,14 L6.93173293,14 C7.05933369,14 7.1627907,13.8955241 7.1627907,13.7666667 L7.1627907,0.233333333 C7.1627907,0.104475904 7.05933369,0 6.93173293,0 Z M6.70067517,12.1333333 L4.15903976,12.1333333 L4.15903976,11.6666667 L6.70067517,11.6666667 L6.70067517,12.1333333 Z M0.462115529,3.5 L3.69692423,3.5 L3.69692423,10.5 L0.462115529,10.5 L0.462115529,3.5 Z M6.70067517,2.56666667 L4.15903976,2.56666667 L4.15903976,1.86666667 L6.70067517,1.86666667 L6.70067517,2.56666667 Z M0.462115529,10.9666667 L3.69692423,10.9666667 L3.69692423,11.6666667 L0.462115529,11.6666667 L0.462115529,10.9666667 Z M4.15903976,11.2 L4.15903976,3.03333333 L6.70067517,3.03333333 L6.70067517,11.2 L4.15903976,11.2 Z M6.70067517,0.466666667 L6.70067517,1.4 L4.15903976,1.4 L4.15903976,0.466666667 L6.70067517,0.466666667 Z M3.69692423,2.33333333 L3.69692423,3.03333333 L0.462115529,3.03333333 L0.462115529,2.33333333 L3.69692423,2.33333333 Z M0.462115529,12.1333333 L3.69692423,12.1333333 L3.69692423,13.5333333 L0.462115529,13.5333333 L0.462115529,12.1333333 Z M4.15903976,13.5333333 L4.15903976,12.6 L6.70067517,12.6 L6.70067517,13.5333333 L4.15903976,13.5333333 Z" id="Shape"></path>
                        <path d="M13.9924609,12.7836518 L11.1632763,2.12674835 C11.1475048,2.06702046 11.1081339,2.01600288 11.0537973,1.98489462 C10.9995759,1.95389946 10.9349937,1.94541537 10.8743255,1.96136546 L7.33784473,2.88805271 C7.21259437,2.92085779 7.1377665,3.04687457 7.1704605,3.17017647 L9.99964512,13.8270799 C10.0154166,13.8868078 10.0549026,13.9378253 10.1092392,13.9688205 C10.1634606,13.9997025 10.2280428,14.0080735 10.2885959,13.9920103 L13.8250767,13.0653231 C13.9500968,13.032518 14.0248096,12.9067274 13.9924609,12.7836518 L13.9924609,12.7836518 Z M8.06160302,4.6913146 L11.1425547,3.88419624 L11.2534151,4.30116024 L8.17269364,5.10952294 L8.06160302,4.6913146 Z M11.372449,4.75070312 L12.7398421,9.90483537 L9.66004168,10.7122931 L8.2926485,5.55782148 L11.372449,4.75070312 Z M12.8599121,10.3533601 L13.1013184,11.2625136 L10.0203667,12.069632 L9.7798814,11.1608178 L12.8599121,10.3533601 Z M10.7668036,2.46893937 L11.0235208,3.43612396 L7.94256912,4.24301606 L7.68608217,3.27628399 L10.7668036,2.46893937 Z M10.3961178,13.4848889 L10.1394006,12.5177043 L13.2203523,11.7103597 L13.4768392,12.6770918 L10.3961178,13.4848889 Z" id="Shape"></path>
                    </g>
                </g>
            </g>
        </g>
    </g>
</svg>