<?xml version="1.0" encoding="UTF-8"?>
<svg id="Layer_2" data-name="Layer 2" xmlns="http://www.w3.org/2000/svg" viewBox="0 0 308.19 332.12">
  <defs>
    <style>
      .cls-1 {
        fill: #f2b134;
        stroke: #f2b131;
        stroke-miterlimit: 10;
        stroke-width: 2px;
      }

      .cls-2 {
        fill: #6faec0;
      }

      .cls-2, .cls-3, .cls-4 {
        stroke-width: 0px;
      }

      .cls-3 {
        fill: #aa5337;
      }

      .cls-4 {
        fill: #e8f1f2;
      }
    </style>
  </defs>
  <g id="Layer_1-2" data-name="Layer 1">
    <g>
      <circle class="cls-4" cx="250.03" cy="101.34" r="58.15"/>
      <g>
        <path class="cls-1" d="m290.12,159.2c-1.52,2.57-2.04,5.59-3.82,8.05-1.39,1.92-2.91,3.7-4.76,5.18-1.46,1.17-3.12,1.67-4.5.03-1.48-1.75-.64-3.25.9-4.59,6.93-6.01,8.46-14.95,3.85-22.32-5.55-8.86-17.5-10.77-25.55-4.07-1.22,1.01-2.29,2.38-4.17,1.53-1.93-.87-1.9-2.64-1.9-4.34-.02-9.22-.09-18.45.04-27.67.03-2.3-.72-2.82-2.89-2.8-11.2.1-22.4.04-33.59.05-1.32,0-2.72.14-3.78-.78-1.9-1.65-1.17-3.2.21-4.86,5.32-6.39,5.89-14.38,1.6-20.9-5.2-7.9-15.73-10.09-23.6-4.91-7.95,5.23-10.12,15.97-4.82,23.86.31.47.63.94.99,1.37,1.08,1.28,2.59,2.46,1.58,4.41-1,1.94-2.95,1.76-4.72,1.77-15.43.02-30.87.09-46.3-.06-2.89-.03-3.6.74-3.54,3.58.19,9.31.12,18.63.04,27.95-.02,2.08.08,2.81,2.51,1.82,12.61-5.13,26.68,1.56,30.61,14.37,3.9,12.75-3.83,26.12-16.99,29.04-5.35,1.19-10.64.46-15.56-1.97-.83.71-.53,1.51-.53,2.2-.02,9.69.06,19.39-.07,29.08-.03,2.29.72,2.81,2.87,2.79,12.61-.09,25.22-.05,37.83-.03,1.03,0,2.08.03,3.07.27,1.31.32,2.08,1.24,2.1,2.65.02,1.42-.72,2.37-2.02,2.71-.98.26-2.04.3-3.06.3-18.44.02-36.89.05-55.33-.03-2.42-.01-3.01.2-1.97,2.82,5,12.6-1.96,26.58-14.89,30.34-12.78,3.72-26.08-4.28-28.72-17.45-.88-4.38-.57-8.81,1.12-13.04.3-.76.92-1.44.64-2.62h-8.37c-8.19,0-16.37,0-24.56,0-4.24,0-5.05-.82-5.06-5.15-.01-7.91,0-15.81,0-23.72,0-.93,0-1.86,0-2.99-2.76.59-5.07,1.81-7.68,2.19-10.12,1.46-20.1-3.84-24.27-13.1-4.22-9.39-1.78-20.38,5.97-26.93,1.28-1.08,2.61-1.99,4.32-1.14,2.16,1.07,1.95,3.41-.42,5.5-4.89,4.31-7.01,9.64-5.82,16.13,2.36,12.87,17.49,18.44,27.62,10.16,1.28-1.05,2.39-2.6,4.39-1.63,2.02.98,1.84,2.88,1.84,4.65.02,9.03.08,18.07-.04,27.1-.03,2.31.57,3.05,2.96,3.02,10.82-.12,21.64-.06,32.47-.05.85,0,1.7-.04,2.54.05,1.33.16,2.65.44,3.23,1.88.57,1.43-.1,2.51-1.03,3.56-3.2,3.62-4.69,7.81-4.48,12.68.37,8.86,8.08,16.15,17.16,16.09,8.93-.06,16.5-7.35,16.87-16.08.2-4.76-1.17-8.9-4.27-12.47-.96-1.1-1.9-2.17-1.24-3.75.7-1.67,2.26-1.91,3.78-1.93,4.7-.06,9.41-.13,14.11.02,2.11.07,2.73-.58,2.72-2.7-.1-11.95-.05-23.9-.04-35.86,0-1.56-.34-3.26,1.51-4.2,1.99-1.01,3.18.4,4.47,1.44,7.34,5.94,17.26,5.25,23.64-1.65,5.94-6.43,5.84-16.65-.22-23.09-6.33-6.73-16.42-7.24-23.66-1.17-1.19,1-2.38,2-4.03,1.34-1.88-.75-1.72-2.48-1.72-4.09,0-11.95-.06-23.91.06-35.86.02-2.39-.69-3.17-3.02-2.95-1.86.18-3.77.12-5.64-.01-1.74-.12-3.14-.89-3.16-2.91-.02-2.01,1.36-2.76,3.11-2.97.84-.1,1.69-.04,2.54-.04,18.26,0,36.51-.04,54.77.05,2.55.01,2.9-.36,1.91-2.86-4.98-12.58,1.98-26.53,14.93-30.32,12.76-3.73,26.1,4.3,28.7,17.48,1.02,5.16.41,10.3-2.12,15.24,1.11.6,2.14.4,3.11.4,9.79.02,19.57,0,29.36.01,5.36,0,5.89.55,5.89,6.02,0,8,.04,16-.03,24-.01,1.77.38,2.02,2.04,1.36,13.39-5.38,26.84,1.05,31.19,14.82.18.58,0,1.38.79,1.69v9.04Z"/>
        <path class="cls-1" d="m290.12,277.23c-.14.12-.39.22-.4.35-1.07,10.94-8.73,17.77-15.64,25.06-1.29,1.36-2.79,1.67-4.22.32-1.41-1.34-1.2-2.85.07-4.24,2.85-3.13,5.76-6.21,8.54-9.39,3.75-4.28,5.47-9.33,5.46-15.02-.02-24.56,0-49.13-.01-73.69,0-5.62-3.64-9.66-8.73-9.79-5.23-.13-9.18,3.87-9.23,9.64-.09,9.41-.02,18.82-.03,28.23,0,.75,0,1.51-.03,2.26-.08,1.71-1.12,2.62-2.7,2.69-1.63.08-2.61-.97-2.92-2.52-.16-.82-.07-1.69-.07-2.53,0-13.74.03-27.48-.03-41.22-.02-4.41-3.08-7.97-7.29-8.83-3.83-.78-7.99,1.41-9.73,5.15-.77,1.65-.95,3.42-.95,5.22.01,11.29,0,22.59,0,33.88,0,.75,0,1.51,0,2.26-.01,1.89-.82,3.09-2.83,3.09-2.04,0-2.77-1.32-2.86-3.12-.06-1.03-.02-2.07-.02-3.11,0-13.83,0-27.67,0-41.5,0-5.83-3.64-9.91-8.82-9.94-5.39-.04-9.13,3.97-9.15,9.99-.05,14.21-.01,28.42-.02,42.63,0,.94.04,1.89-.09,2.82-.19,1.39-1.09,2.13-2.49,2.24-1.39.11-2.47-.45-2.85-1.79-.28-.97-.29-2.04-.29-3.06-.02-13.08,0-26.16-.02-39.24,0-5.86-3.61-10-8.75-10.1-5.12-.1-9.21,4.27-9.22,10.04-.04,18.92-.01,37.83-.02,56.75,0,4.61-.93,5.34-5.41,4.24-6.2-1.53-12.39-3.11-18.59-4.61-6.51-1.58-12.44,1.45-14.62,7.4-2.25,6.14.27,12.3,6.37,15.34,10.69,5.31,21.46,10.47,32.11,15.86,8.38,4.25,12.96,11.17,13.61,20.61.14,2.07-.16,4.02-2.67,4.1-2.42.08-2.92-1.73-3.07-3.85-.54-7.39-4.3-12.67-10.91-15.93-10.7-5.29-21.47-10.45-32.12-15.84-11.55-5.85-13.42-21.02-3.72-29.59,4.56-4.03,9.97-5.12,15.82-3.84,5.04,1.1,10.07,2.33,15.03,3.74,2.2.63,2.47-.05,2.46-2.02-.06-17.6-.06-35.2-.02-52.8.02-8.91,6.74-15.58,15.31-15.3,3.2.11,6.12,1.13,8.53,3.24,1.17,1.02,1.58.86,2.51-.36,7.47-9.79,20.75-8.32,25.78,2.84.59,1.31.93,1.83,2.33.91,8.67-5.72,22.07-.24,22.5,12.88,5.88-3.31,11.74-3.93,17.45.02,3.61,2.49,5.57,6.02,6.14,10.35.36,1.01.18,2.05.18,3.07.01,23.95,0,47.91.02,71.86,0,1.01-.27,2.07.28,3.04v1.13Z"/>
        <path class="cls-1" d="m290.12,276.1c-.73-.41-.56-1.13-.56-1.76.02-25.4.05-50.81.07-76.21.16,0,.32.02.48.04v77.93Z"/>
        <path class="cls-1" d="m24.96,137.3c-4.18,2.62-8.45,3.53-13.07,2.18-5.97-1.74-10.36-7.08-10.37-13.29-.06-25.88-.07-51.76.04-77.64.03-6.36,2.68-11.87,6.79-16.63,2.58-2.99,5.36-5.81,8.03-8.72,1.38-1.5,2.9-2.74,4.8-1.02,1.86,1.69.93,3.32-.5,4.86-2.88,3.1-5.78,6.19-8.51,9.42-3.27,3.87-4.94,8.42-4.94,13.49-.03,25.03-.03,50.07-.01,75.1,0,4.97,3.44,8.83,8.07,9.28,4.79.46,8.91-2.77,9.68-7.86.33-2.21.21-4.5.22-6.75.02-7.81,0-15.62,0-23.43,0-3.48.87-5,2.92-4.75,2.79.35,2.82,2.5,2.82,4.69-.02,13.83-.04,27.67,0,41.5.01,4.4,2.77,7.78,6.94,8.81,3.71.92,7.86-.95,9.81-4.47,1.03-1.86,1.23-3.91,1.22-6.01-.02-11.39,0-22.78,0-34.16,0-.85-.04-1.7.07-2.54.17-1.39,1.01-2.18,2.41-2.32,1.53-.16,2.61.5,3.02,1.95.25.88.21,1.86.21,2.79.01,14.68-.01,29.36.03,44.05.01,4.31,3.29,8.14,7.31,8.81,4.24.71,8.51-1.71,9.95-5.69.58-1.6.72-3.29.71-5-.02-13.93-.01-27.86-.01-41.79,0-.75,0-1.51.02-2.26.06-1.78.92-2.84,2.77-2.87,1.87-.04,2.71,1.1,2.9,2.79.11.93.04,1.88.04,2.82,0,12.8,0,25.6,0,38.4,0,6,3.76,10.25,8.95,10.17,5.17-.08,9.01-4.38,9.02-10.24.03-18.73,0-37.46.01-56.19,0-5.08.88-5.75,5.88-4.5,6.01,1.5,12.01,3.04,18.04,4.5,6.53,1.58,12.49-1.42,14.67-7.31,2.28-6.14-.17-12.33-6.29-15.39-10.68-5.34-21.46-10.47-32.12-15.86-8.49-4.29-13.1-11.28-13.68-20.85-.12-2,.29-3.78,2.61-3.88,2.42-.1,3,1.64,3.14,3.78.49,7.29,4.13,12.59,10.6,15.84,10.76,5.39,21.64,10.53,32.37,15.98,10.09,5.14,13.06,17.33,6.66,26.45-4.11,5.86-11.54,8.69-18.67,7.03-5.03-1.18-10.06-2.36-15.03-3.76-2.13-.6-2.5-.06-2.49,1.98.07,17.6.07,35.2.02,52.8-.02,8.93-6.73,15.61-15.29,15.32-3.19-.1-6.12-1.12-8.54-3.22-1.15-.99-1.57-.91-2.52.34-7.5,9.8-20.8,8.36-25.75-2.83-.91-2.06-1.63-1.26-2.83-.62-8.7,4.63-18.84.43-21.44-8.88-.35-1.25-.41-2.58-.68-4.39Z"/>
      </g>
      <circle class="cls-2" cx="250.03" cy="315.27" r="16.84"/>
      <circle class="cls-3" cx="37.84" cy="12.03" r="12.03"/>
    </g>
  </g>
</svg>